<?xml version="1.0" standalone="no"?>
<!DOCTYPE svg PUBLIC "-//W3C//DTD SVG 20010904//EN"
 "http://www.w3.org/TR/2001/REC-SVG-20010904/DTD/svg10.dtd">
<svg version="1.0" xmlns="http://www.w3.org/2000/svg"
 width="512.000000pt" height="512.000000pt" viewBox="0 0 512.000000 512.000000"
 preserveAspectRatio="xMidYMid meet">

<g transform="translate(0.000000,512.000000) scale(0.100000,-0.100000)"
fill="#a0a0a0" stroke="none">
<path d="M1535 5106 c-73 -33 -95 -83 -95 -212 l0 -94 -352 0 c-404 0 -442 -5
-577 -72 -166 -82 -297 -251 -336 -434 -22 -104 -22 -3684 0 -3788 50 -239
252 -441 491 -491 104 -22 3684 -22 3788 0 239 50 441 252 491 491 22 104 22
3684 0 3788 -39 183 -170 352 -336 434 -135 67 -173 72 -576 72 l-351 0 -4
109 c-3 118 -12 141 -72 185 -39 29 -133 29 -172 0 -60 -44 -69 -67 -72 -185
l-4 -109 -798 0 -798 0 -4 109 c-3 118 -12 141 -70 184 -34 25 -113 32 -153
13z m-93 -735 c3 -118 12 -141 72 -185 39 -29 133 -29 172 0 60 44 69 67 72
185 l4 109 798 0 798 0 4 -109 c2 -92 6 -114 24 -137 32 -44 68 -66 116 -71
58 -7 108 15 144 63 27 35 29 44 32 146 l4 109 356 -3 357 -3 56 -26 c71 -33
125 -87 158 -158 25 -54 26 -65 29 -253 l4 -198 -2081 0 -2081 0 0 178 c0 198
9 247 60 324 36 54 91 95 163 119 46 16 91 18 394 19 l341 0 4 -109z m3196
-2328 l-3 -1478 -26 -56 c-33 -71 -87 -125 -158 -158 l-56 -26 -1835 0 -1835
0 -56 26 c-71 33 -125 87 -158 158 l-26 56 -3 1478 -2 1477 2080 0 2080 0 -2
-1477z"/>
<path d="M1023 2862 c-72 -26 -127 -66 -163 -121 -55 -82 -62 -127 -58 -364 3
-205 4 -214 29 -268 33 -71 87 -125 158 -158 55 -26 58 -26 291 -26 233 0 236
0 291 26 71 33 125 87 158 158 26 55 26 58 26 291 0 233 0 236 -26 291 -33 71
-87 125 -158 158 -54 25 -62 26 -276 29 -192 2 -227 0 -272 -16z m417 -462 l0
-160 -160 0 -160 0 0 160 0 160 160 0 160 0 0 -160z"/>
<path d="M2303 2862 c-72 -26 -127 -66 -163 -121 -55 -82 -62 -127 -58 -364 3
-205 4 -214 29 -268 33 -71 87 -125 158 -158 55 -26 58 -26 291 -26 233 0 236
0 291 26 71 33 125 87 158 158 26 55 26 58 26 291 0 233 0 236 -26 291 -33 71
-87 125 -158 158 -54 25 -62 26 -276 29 -192 2 -227 0 -272 -16z m417 -462 l0
-160 -160 0 -160 0 0 160 0 160 160 0 160 0 0 -160z"/>
<path d="M3583 2862 c-72 -26 -127 -66 -163 -121 -55 -82 -62 -127 -58 -364 3
-205 4 -214 29 -268 33 -71 87 -125 158 -158 55 -26 58 -26 291 -26 233 0 236
0 291 26 71 33 125 87 158 158 26 55 26 58 26 291 0 233 0 236 -26 291 -33 71
-87 125 -158 158 -54 25 -62 26 -276 29 -192 2 -227 0 -272 -16z m417 -462 l0
-160 -160 0 -160 0 0 160 0 160 160 0 160 0 0 -160z"/>
<path d="M1023 1582 c-72 -26 -127 -66 -163 -121 -55 -82 -62 -127 -58 -364 3
-205 4 -214 29 -268 33 -71 87 -125 158 -158 55 -26 58 -26 291 -26 233 0 236
0 291 26 71 33 125 87 158 158 26 55 26 58 26 291 0 233 0 236 -26 291 -33 71
-87 125 -158 158 -54 25 -62 26 -276 29 -192 2 -227 0 -272 -16z m417 -462 l0
-160 -160 0 -160 0 0 160 0 160 160 0 160 0 0 -160z"/>
<path d="M2303 1582 c-72 -26 -127 -66 -163 -121 -55 -82 -62 -127 -58 -364 3
-205 4 -214 29 -268 33 -71 87 -125 158 -158 55 -26 58 -26 291 -26 233 0 236
0 291 26 71 33 125 87 158 158 26 55 26 58 26 291 0 233 0 236 -26 291 -33 71
-87 125 -158 158 -54 25 -62 26 -276 29 -192 2 -227 0 -272 -16z m417 -462 l0
-160 -160 0 -160 0 0 160 0 160 160 0 160 0 0 -160z"/>
<path d="M3583 1582 c-72 -26 -127 -66 -163 -121 -55 -82 -62 -127 -58 -364 3
-205 4 -214 29 -268 33 -71 87 -125 158 -158 55 -26 58 -26 291 -26 233 0 236
0 291 26 71 33 125 87 158 158 26 55 26 58 26 291 0 233 0 236 -26 291 -33 71
-87 125 -158 158 -54 25 -62 26 -276 29 -192 2 -227 0 -272 -16z m417 -462 l0
-160 -160 0 -160 0 0 160 0 160 160 0 160 0 0 -160z"/>
</g>
</svg>
