<?xml version="1.0" standalone="no"?>
<!DOCTYPE svg PUBLIC "-//W3C//DTD SVG 20010904//EN"
        "http://www.w3.org/TR/2001/REC-SVG-20010904/DTD/svg10.dtd">
<svg version="1.0" xmlns="http://www.w3.org/2000/svg"
     width="512.000000pt" height="512.000000pt" viewBox="0 0 512.000000 512.000000"
     preserveAspectRatio="xMidYMid meet">

    <g transform="translate(0.000000,512.000000) scale(0.100000,-0.100000)"
       fill="#1446c6" stroke="none">
        <path d="M995 4776 c-84 -21 -147 -57 -211 -121 -101 -101 -134 -196 -134
-390 l0 -115 -120 0 c-65 0 -143 -5 -172 -11 -172 -37 -311 -176 -347 -347
-16 -76 -16 -3030 0 -3104 37 -172 175 -310 347 -347 75 -16 3678 -16 3754 0
128 27 241 113 301 226 45 88 57 148 57 288 l0 115 120 0 c137 0 203 11 279
49 116 56 213 181 240 309 16 76 16 3030 0 3104 -37 172 -176 311 -347 347
-81 17 -3699 14 -3767 -3z m3745 -306 c26 -13 47 -34 60 -60 20 -39 20 -54 18
-758 l-3 -718 -435 309 c-239 169 -452 317 -472 328 -45 23 -89 24 -130 3 -16
-8 -297 -249 -624 -535 l-593 -520 -274 239 c-150 132 -287 247 -304 256 -38
19 -82 21 -119 4 -15 -7 -226 -169 -468 -359 l-441 -346 -3 1026 c-3 1155 -8
1078 72 1126 l41 25 1818 0 c1802 0 1818 0 1857 -20z m-4090 -1855 c0 -882 3
-1249 11 -1287 37 -172 175 -310 347 -347 38 -8 486 -11 1607 -11 l1555 0 0
-110 c0 -133 -17 -178 -80 -210 -39 -20 -55 -20 -1856 -20 l-1816 0 -40 22
c-24 14 -48 38 -59 60 -18 36 -19 84 -19 1530 1 1418 2 1495 19 1527 10 18 35
44 57 57 35 22 51 24 157 24 l117 0 0 -1235z m3688 290 l481 -340 1 -588 c0
-570 -1 -589 -20 -627 -13 -26 -34 -47 -60 -60 -39 -20 -55 -20 -1856 -20
l-1816 0 -40 22 c-74 42 -78 59 -78 366 l0 269 479 376 c264 207 483 377 486
377 4 0 130 -108 279 -239 150 -131 287 -246 304 -255 39 -20 85 -20 125 0 18
8 300 251 627 539 327 287 598 522 601 522 3 -1 222 -155 487 -342z"/>
        <path d="M2439 4132 c-346 -91 -464 -529 -210 -783 182 -182 480 -182 662 0
182 183 182 479 0 662 -120 119 -286 164 -452 121z m195 -302 c74 -36 112
-126 87 -203 -16 -46 -80 -104 -125 -113 -61 -11 -106 4 -152 50 -67 67 -72
154 -11 223 56 64 127 79 201 43z"/>
    </g>
</svg>
