<?xml version="1.0" standalone="no"?>
<!DOCTYPE svg PUBLIC "-//W3C//DTD SVG 20010904//EN"
 "http://www.w3.org/TR/2001/REC-SVG-20010904/DTD/svg10.dtd">
<svg version="1.0" xmlns="http://www.w3.org/2000/svg"
 viewBox="0 0 512.000000 512.000000"
 preserveAspectRatio="xMidYMid meet">

<g transform="translate(0.000000,512.000000) scale(0.100000,-0.100000)"
fill="#a0a0a0" stroke="none">
<path d="M319 4676 c-112 -32 -221 -121 -272 -222 -118 -236 3 -518 258 -598
42 -14 79 -17 145 -14 77 4 98 9 163 41 143 71 228 199 235 358 5 106 -12 171
-67 256 -45 70 -125 135 -203 165 -67 25 -196 33 -259 14z"/>
<path d="M1648 4468 c-21 -5 -58 -28 -82 -50 -113 -98 -89 -275 45 -342 l53
-26 1634 0 c1265 0 1644 3 1676 12 57 17 119 82 135 141 27 95 -13 195 -97
244 l-47 28 -1640 2 c-1061 1 -1653 -2 -1677 -9z"/>
<path d="M290 2960 c-165 -61 -273 -200 -287 -371 -21 -254 202 -477 456 -456
176 15 322 132 375 302 28 88 19 211 -21 297 -44 93 -109 160 -201 205 -68 34
-83 38 -171 40 -77 3 -107 -1 -151 -17z"/>
<path d="M1611 2744 c-90 -45 -134 -140 -110 -238 17 -73 86 -140 160 -156 40
-8 470 -10 1679 -8 l1625 3 47 28 c84 49 124 149 97 244 -16 59 -81 127 -135
142 -27 8 -544 11 -1675 11 l-1635 0 -53 -26z"/>
<path d="M340 1266 c-84 -18 -149 -54 -213 -117 -168 -167 -168 -430 0 -598
166 -165 420 -169 588 -10 92 87 135 185 135 309 0 123 -43 222 -133 308 -65
61 -119 89 -206 108 -78 16 -98 16 -171 0z"/>
<path d="M1620 1044 c-167 -72 -165 -318 2 -389 33 -13 220 -15 1683 -15 1465
0 1650 2 1683 16 170 70 176 300 10 385 -36 18 -83 19 -1690 19 -1454 -1
-1657 -3 -1688 -16z"/>
</g>
</svg>
