<?xml version="1.0" standalone="no"?>
<!DOCTYPE svg PUBLIC "-//W3C//DTD SVG 20010904//EN"
        "http://www.w3.org/TR/2001/REC-SVG-20010904/DTD/svg10.dtd">
<svg version="1.0" xmlns="http://www.w3.org/2000/svg"
     width="512.000000pt" height="512.000000pt" viewBox="0 0 512.000000 512.000000"
     preserveAspectRatio="xMidYMid meet">

    <g transform="translate(0.000000,512.000000) scale(0.100000,-0.100000)"
       fill="#1446c6" stroke="none">
        <path d="M765 4673 c-47 -24 -86 -64 -106 -108 -18 -38 -19 -111 -19 -1890 0
-1283 3 -1862 11 -1889 14 -50 82 -118 135 -134 32 -9 456 -12 1890 -12 1778
0 1851 1 1889 19 77 36 125 111 125 196 0 83 -39 148 -115 188 l-40 22 -1732
3 -1733 2 -2 1733 -3 1732 -22 40 c-27 50 -58 80 -105 100 -48 19 -134 19
-173 -2z"/>
        <path d="M4180 4674 c-46 -20 -77 -50 -103 -99 l-22 -40 -3 -1410 c-2 -1045 0
-1424 8 -1464 16 -74 83 -143 156 -160 98 -24 193 20 238 110 l26 53 0 1428
c0 1565 4 1466 -58 1531 -61 64 -162 86 -242 51z"/>
        <path d="M2460 4028 c-25 -14 -58 -44 -75 -67 l-30 -43 -3 -1121 c-2 -778 0
-1133 8 -1159 35 -120 187 -180 300 -118 24 14 58 45 75 68 l30 44 0 1142 0
1143 -27 39 c-44 62 -90 88 -167 92 -55 3 -74 -1 -111 -20z"/>
        <path d="M3362 3620 c-57 -13 -108 -55 -136 -111 l-26 -53 0 -896 0 -896 26
-53 c67 -134 244 -158 342 -46 23 27 44 63 51 90 8 30 11 304 11 905 0 601 -3
875 -11 905 -17 66 -78 131 -142 150 -55 16 -66 17 -115 5z"/>
        <path d="M1648 2978 c-21 -5 -58 -28 -82 -50 -77 -67 -76 -61 -76 -685 0 -384
3 -558 12 -591 16 -66 87 -135 154 -151 98 -24 193 20 238 110 l26 53 0 577 0
577 -28 53 c-46 89 -149 134 -244 107z"/>
    </g>
</svg>
